<svg fill="#fc0" viewBox="0 0 24 24" xmlns="http://www.w3.org/2000/svg"><path d="m12 3a1 1 0 0 0 -1 1 1 1 0 0 0 .417969.8144531l-3.0722659 4.3007813-5.3984375-1.7988282a1 1 0 0 0 .0527344-.3164062 1 1 0 0 0 -1-1 1 1 0 0 0 -1 1 1 1 0 0 0 1 1 1 1 0 0 0 .2167969-.0253906l1.4355469 6.4589846c.2029999.915 1.0141718 1.566406 1.9511718 1.566406h12.7910154c.937 0 1.750125-.651406 1.953125-1.566406l1.435547-6.4570315a1 1 0 0 0 .216797.0234375 1 1 0 0 0 1-1 1 1 0 0 0 -1-1 1 1 0 0 0 -1 1 1 1 0 0 0 .052734.3164062l-5.398437 1.7988282-3.074219-4.3027344a1 1 0 0 0 .419922-.8125 1 1 0 0 0 -1-1zm-7 15c-.552 0-1 .448-1 1s.448 1 1 1h14c.552 0 1-.448 1-1s-.448-1-1-1z" fill="#fc0"/></svg>