<svg height="11" viewBox="0 0 14 11" width="14" xmlns="http://www.w3.org/2000/svg"><path d="m2.1875 0c-.617187 0-1.179687.386719-1.398437.96875l-.757813 1.976563c-.019531.058593-.03125.117187-.03125.179687v6.375c0 .824219.675781 1.5 1.5 1.5h3c.898438 0 1.445313-.488281 1.675781-.863281.03125-.050781.046875-.085938.074219-.136719h1.5c.023438.046875.046875.089844.074219.136719.230469.375.777344.863281 1.675781.863281h3c.824219 0 1.5-.675781 1.5-1.5v-5.714844c0-.011718 0-.023437 0-.035156v-.625c0-.0625-.011719-.121094-.03125-.179687l-.753906-1.976563c-.222656-.582031-.785156-.96875-1.402344-.96875zm0 1h9.625c.207031 0 .390625.125.464844.320313l.257812.683593c-.011718 0-.023437-.003906-.035156-.003906h-11c-.011719 0-.023437.003906-.039062.003906l.261718-.683593c.074219-.195313.257813-.320313.464844-.320313zm-.6875 2h11c.28125 0 .5.21875.5.5v6c0 .28125-.21875.5-.5.5h-3c-.601562 0-.691406-.171875-.824219-.386719-.121093-.195312-.28125-.546875-.488281-.878906-.105469-.164062-.226562-.324219-.390625-.46875-.164062-.140625-.398437-.265625-.671875-.265625h-.25c-.253906 0-.492187.109375-.65625.246094-.160156.136719-.277344.289062-.378906.449219-.203125.316406-.355469.660156-.515625.917968-.132813.214844-.222656.386719-.824219.386719h-3c-.28125 0-.5-.21875-.5-.5v-5.714844c0-.011718 0-.023437 0-.035156v-.25c0-.28125.21875-.5.5-.5zm2.5 1c-1.097656 0-2 .902344-2 2s.902344 2 2 2 2-.902344 2-2-.902344-2-2-2zm6 0c-1.097656 0-2 .902344-2 2s.902344 2 2 2 2-.902344 2-2-.902344-2-2-2zm-6 1c.558594 0 1 .441406 1 1s-.441406 1-1 1-1-.441406-1-1 .441406-1 1-1zm6 0c.558594 0 1 .441406 1 1s-.441406 1-1 1-1-.441406-1-1 .441406-1 1-1z"/></svg>